<?xml version="1.0" encoding="UTF-8" standalone="no"?>
<!-- Created with Inkscape (http://www.inkscape.org/) -->

<svg
   xmlns:dc="http://purl.org/dc/elements/1.1/"
   xmlns:cc="http://creativecommons.org/ns#"
   xmlns:rdf="http://www.w3.org/1999/02/22-rdf-syntax-ns#"
   xmlns:svg="http://www.w3.org/2000/svg"
   xmlns="http://www.w3.org/2000/svg"
   xmlns:sodipodi="http://sodipodi.sourceforge.net/DTD/sodipodi-0.dtd"
   xmlns:inkscape="http://www.inkscape.org/namespaces/inkscape"
   width="480"
   height="480"
   viewBox="0 0 127 127"
   version="1.1"
   id="svg8"
   inkscape:version="0.92.4 5da689c313, 2019-01-14"
   sodipodi:docname="friend-add.svg">
  <defs
     id="defs2" />
  <sodipodi:namedview
     id="base"
     pagecolor="#ffffff"
     bordercolor="#666666"
     borderopacity="1.0"
     inkscape:pageopacity="0.0"
     inkscape:pageshadow="2"
     inkscape:zoom="0.98994949"
     inkscape:cx="51.811225"
     inkscape:cy="178.68229"
     inkscape:document-units="mm"
     inkscape:current-layer="layer1"
     showgrid="false"
     units="px"
     inkscape:window-width="1920"
     inkscape:window-height="1029"
     inkscape:window-x="0"
     inkscape:window-y="25"
     inkscape:window-maximized="1" />
  <metadata
     id="metadata5">
    <rdf:RDF>
      <cc:Work
         rdf:about="">
        <dc:format>image/svg+xml</dc:format>
        <dc:type
           rdf:resource="http://purl.org/dc/dcmitype/StillImage" />
        <dc:title />
      </cc:Work>
    </rdf:RDF>
  </metadata>
  <g
     inkscape:label="Layer 1"
     inkscape:groupmode="layer"
     id="layer1"
     transform="translate(0,-169.99998)">
    <path
       style="fill:#b3b3b3;fill-opacity:1;stroke:none;stroke-width:2.26771665;stroke-miterlimit:4;stroke-dasharray:none"
       d="M 232.7793 120.94531 C 223.23871 120.94531 215.5 128.68203 215.5 138.22266 L 215.5 215.97266 L 137.75 215.97266 C 128.20941 215.97266 120.47266 223.70938 120.47266 233.25 L 120.47266 250.5293 C 120.47266 260.06988 128.20941 267.80664 137.75 267.80664 L 215.5 267.80664 L 215.5 345.55664 C 217.87679 354.79645 223.23871 362.83398 232.7793 362.83398 L 250.05664 362.83398 C 259.59723 362.83398 267.33398 355.09723 267.33398 345.55664 L 267.33398 267.80664 L 345.08398 267.80664 C 354.62461 267.80664 362.36133 260.06988 362.36133 250.5293 L 362.36133 233.25 C 362.36133 223.70938 354.62461 215.97266 345.08398 215.97266 L 267.33398 215.97266 L 267.33398 138.22266 C 267.33398 128.68203 259.59723 120.94531 250.05664 120.94531 L 232.7793 120.94531 z "
       transform="matrix(0.26458333,0,0,0.26458333,0,169.99998)"
       id="rect814" />
  </g>
</svg>
