<?xml version="1.0" encoding="UTF-8" standalone="no"?>
<!-- Created with Inkscape (http://www.inkscape.org/) -->

<svg
   xmlns:dc="http://purl.org/dc/elements/1.1/"
   xmlns:cc="http://creativecommons.org/ns#"
   xmlns:rdf="http://www.w3.org/1999/02/22-rdf-syntax-ns#"
   xmlns:svg="http://www.w3.org/2000/svg"
   xmlns="http://www.w3.org/2000/svg"
   xmlns:sodipodi="http://sodipodi.sourceforge.net/DTD/sodipodi-0.dtd"
   xmlns:inkscape="http://www.inkscape.org/namespaces/inkscape"
   width="320"
   height="180"
   viewBox="0 0 84.666667 47.625002"
   version="1.1"
   id="svg8"
   inkscape:version="0.92.4 5da689c313, 2019-01-14"
   sodipodi:docname="playlist-folder.svg">
  <defs
     id="defs2" />
  <sodipodi:namedview
     id="base"
     pagecolor="#ffffff"
     bordercolor="#666666"
     borderopacity="1.0"
     inkscape:pageopacity="0.0"
     inkscape:pageshadow="2"
     inkscape:zoom="1.979899"
     inkscape:cx="47.215525"
     inkscape:cy="146.77583"
     inkscape:document-units="mm"
     inkscape:current-layer="layer1"
     showgrid="false"
     units="px"
     inkscape:window-width="3200"
     inkscape:window-height="1698"
     inkscape:window-x="0"
     inkscape:window-y="50"
     inkscape:window-maximized="1" />
  <metadata
     id="metadata5">
    <rdf:RDF>
      <cc:Work
         rdf:about="">
        <dc:format>image/svg+xml</dc:format>
        <dc:type
           rdf:resource="http://purl.org/dc/dcmitype/StillImage" />
        <dc:title></dc:title>
      </cc:Work>
    </rdf:RDF>
  </metadata>
  <g
     inkscape:label="Layer 1"
     inkscape:groupmode="layer"
     id="layer1"
     transform="translate(0,-249.37498)">
    <path
       style="fill:#b3b3b3;fill-opacity:1;stroke:none;stroke-width:0.60000002;stroke-miterlimit:4;stroke-dasharray:none"
       d="m 0,249.37498 v 47.625 h 84.666666 v -47.625 z m 27.165661,8.34917 h 12.44526 l 4.977899,4.9779 h 12.44526 c 2.062017,0 3.733679,1.67167 3.733679,3.73368 v 3.73368 H 35.255132 c -2.645467,0 -5.117148,1.41953 -6.45011,3.70462 l -5.37304,9.21064 v -21.62684 c 0,-2.06201 1.673523,-3.82127 3.733679,-3.73368 z m 8.089471,14.93438 h 31.110244 c 1.440769,0 2.338388,1.56283 1.612358,2.80735 l -5.633166,9.65705 c -0.892143,1.52937 -2.529509,2.46975 -4.300075,2.46964 H 26.93425 c -1.440768,0 -2.338302,-1.56283 -1.612357,-2.80736 l 5.633164,-9.65705 c 0.892181,-1.52933 2.529524,-2.4697 4.300075,-2.46963 z"
       id="rect814"
       inkscape:connector-curvature="0"
       sodipodi:nodetypes="cccccsccsscsccsscscccsccc" />
  </g>
</svg>
