<?xml version="1.0" standalone="no"?>
<!DOCTYPE svg PUBLIC "-//W3C//DTD SVG 20010904//EN"
 "http://www.w3.org/TR/2001/REC-SVG-20010904/DTD/svg10.dtd">
<svg version="1.0" xmlns="http://www.w3.org/2000/svg"
 width="700.000000pt" height="700.000000pt" viewBox="0 0 700.000000 700.000000"
 preserveAspectRatio="xMidYMid meet">
<metadata>
Created by potrace 1.11, written by Peter Selinger 2001-2013
</metadata>
<g transform="translate(0.000000,700.000000) scale(0.100000,-0.100000)"
fill="#000000" stroke="none">
<path d="M3415 5479 c-39 -3 -104 -16 -145 -27 -199 -55 -2916 -895 -2950
-912 -51 -26 -105 -91 -120 -146 -28 -100 15 -213 101 -267 27 -16 152 -60
303 -107 142 -43 260 -81 263 -84 3 -3 -10 -27 -30 -53 -73 -101 -126 -238
-143 -369 -6 -54 -11 -61 -64 -111 -77 -71 -104 -133 -104 -233 -1 -92 22
-148 89 -219 l47 -50 -132 -596 c-142 -641 -145 -662 -101 -724 47 -66 50 -66
421 -66 367 0 372 1 419 61 52 66 54 51 -94 715 l-135 612 44 43 c69 69 91
123 91 224 0 115 -34 184 -129 258 l-29 22 13 62 c18 98 64 182 136 254 58 58
65 63 91 54 72 -24 1872 -576 1978 -606 152 -44 292 -55 410 -31 145 30 3005
914 3054 945 86 53 129 166 101 266 -15 55 -69 120 -120 146 -41 21 -2815 877
-2965 915 -105 26 -202 34 -300 24z"/>
<path d="M1660 3349 c0 -2 -34 -270 -74 -596 -61 -481 -73 -599 -64 -630 69
-257 562 -475 1283 -567 415 -53 975 -53 1390 0 572 73 1017 230 1196 421 26
27 54 63 62 79 40 77 40 73 -38 696 -41 325 -76 592 -77 594 -2 1 -352 -105
-779 -236 -477 -147 -815 -246 -875 -256 -118 -20 -320 -15 -429 11 -57 13
-1531 463 -1581 482 -8 3 -14 4 -14 2z"/>
</g>
</svg>
